<svg xmlns="http://www.w3.org/2000/svg" version="1.1" xmlns:xlink="http://www.w3.org/1999/xlink" xmlns:svgjs="http://svgjs.com/svgjs" width="512" height="446.49"><svg id="SvgjsSvg1000" data-name="Layer 1" xmlns="http://www.w3.org/2000/svg" viewBox="0 0 512 446.49"><defs><style>.cls-1{fill:#fff;}</style></defs><title>logo-1</title><path class="cls-1" d="M320.21,204.11l-9.74-16.83-9.26-16-1.45-2.45a.2.2,0,0,1-.08-.13,30,30,0,0,1-3.5-4.58l-5.5-8.74a2.53,2.53,0,0,1-.13-.22,32.07,32.07,0,0,1-4-9.09,33.66,33.66,0,0,1-1.22-9c0-1.36.08-2.71.21-4a0,0,0,0,1,.05-.05,34.28,34.28,0,0,1,13.81-23.81c.65-.48,1.35-1,2.05-1.4a34.52,34.52,0,0,1,47,9.79s0,0,0,.08c.22.31.44.62.62.92l5.55,8.74c1.22,2,6.55,12.28,6.55,12.28l9,15.6h50l-10.66-18.35-13.68-23.6-9.7-16.73-3.71-6.41a66.69,66.69,0,0,0-52.32-33l-.51,0c-.09,0-.13,0-.22,0H316.94c-1.14,0-2.28.18-3.41.31-19.88,2.31-37.27,11.79-48.81,25.47L260,91h0a66.75,66.75,0,0,0-15.38-17.44A77.25,77.25,0,0,0,201.71,57H189c-21,1.61-39.5,11.2-51.68,25.37a48,48,0,0,0-5,7.25l-3.91,6.78-1.57,2.71L105,136.82,94.36,155.17h50l9-15.64,8.3-12.24,5.55-8.74a34.49,34.49,0,0,1,46.84-11.27v0c.26.13.52.27.79.44A34.43,34.43,0,0,1,231,136.42v.05a2.69,2.69,0,0,1,0,.57,38.5,38.5,0,0,1-.26,4.41l-8,13.72-9.35,16.12-.7,1.27-8.87,15.29-9,15.56a74.44,74.44,0,0,0-11.36-12.15,68,68,0,0,0-6.6-5.11c-1-.7-2-1.36-3-2a78.18,78.18,0,0,0-23.9-10,0,0,0,0,0-.05-.05A79.87,79.87,0,0,0,134.6,172a76.64,76.64,0,0,0-9.09.22,78.84,78.84,0,0,0-60.82,36.7L47.12,236.7l-.22.35L23.52,277.36a38.31,38.31,0,0,0-3.8,8.53,79.19,79.19,0,0,0,115,90.9,62.42,62.42,0,0,0,23.08-23.33l23-39.64v0l-23.5-40.51L126.56,322a30.55,30.55,0,0,1-2.67,3.67c-.08.09-.13.18-.21.27A34.52,34.52,0,0,1,64.6,292.68a.14.14,0,0,1,0-.09,32.68,32.68,0,0,1,3.5-7.43l10-15.86.17-.26,24.12-38.32a34.64,34.64,0,0,1,47.63-10.8,36,36,0,0,1,5.81,4.59v.05a33.7,33.7,0,0,1,7.8,11.64,86.84,86.84,0,0,0,5.53,11.3h0l25,43.12,2.88,5,36.79,63.45,23.42,40.37,23.42-40.37,37.23-64.23,2.45-4.2,25-43.12,11-19,.4.26a34.73,34.73,0,0,1,9.48-8.83,34.68,34.68,0,0,1,47.62,10.8l1.88,3,.18.3s25.89,44.67,34.44,59.44a21.21,21.21,0,0,1,3.12,11.31A34.53,34.53,0,0,1,389.78,322l-14.42-22.85-.22-.39-17-26.92-24.29,41.95v0l23,39.78a57.67,57.67,0,0,0,14.29,16.78,79.43,79.43,0,0,0,55,16.37,79,79,0,0,0,58.68-33.91q1.27-1.83,2.43-3.74c14.63-24,13.87-54.35-.22-78.65l-29.95-51.66-.09-.13-.13-.22-6-9.57a79,79,0,0,0-61.74-36.79A88.89,88.89,0,0,0,380,172a79.27,79.27,0,0,0-38.32,12.15c-1.44.92-2.88,1.88-4.24,2.88h0l-.08.06A37.32,37.32,0,0,0,327,198.6L322,207.17ZM297,250.29l-39.68,68.38-39.67-68.42,39.67-68.43L297,250.25Z"></path></svg><style>@media (prefers-color-scheme: light) { :root { filter: none; } }
</style></svg>